# xmcd
#
# Track frame offsets:
#	150
#	15789
#	31632
#	47000
#	61737
#	76683
#	91302
#	106568
#	120804
#	135120
#	150407
#	164860
#	179845
#	194018
#	209696
#	224440
#	239296
#	253810
#	267279
#	283382
#	298468
#	313102
#
# Disc length: 4363 seconds
#
# Revision: 1
# Processed by: cddbd v1.5.2PL0 Copyright (c) Steve Scherf et al.
# Submitted via: EasyCDDAExtractor 7.0.5.1
#
DISCID=38110916
DTITLE=Σωτηρία Μπέλλου - Τα αυθεντικά
DYEAR=2003
DGENRE=Ethnic
TTITLE0=Απόψε κάνεις μπαμ
TTITLE1=Τραμπαρίφας
TTITLE2=Πέφτεις σε λάθη
TTITLE3=Σβήσε το φως να κοιμηθούμε
TTITLE4=Κάνε λιγάκι υπομονή
TTITLE5=Γλέντα με, φως μου, γλέντα με
TTITLE6=Μια και μ' έπιασες κορόϊδο
TTITLE7=Τα καραβοτσακίσματα
TTITLE8=Τις γυναίκες τις δουλεύω
TTITLE9=Πληροφορίες
TTITLE10=Πειραιώτισσα
TTITLE11=Ο φιγουρατζής
TTITLE12=Πάρε με γλυκειά τσιγγάνα
TTITLE13=Δεν υποφέρεσαι
TTITLE14=’νοιξε γιατί δεν αντέχω
TTITLE15=Ένας σατράπης θηλυκός
TTITLE16=Θέλω μάγκα και σατράπη
TTITLE17=Αν είμ' εγώ μποέμισσα
TTITLE18=Περιπλανώμενη ζωή
TTITLE19=Ποιά καρδιά δεν θα ραΐσει
TTITLE20=Σε παλάτια και τσαντήρια
TTITLE21=Το παλτό
EXTD=
EXTT0=
EXTT1=
EXTT2=
EXTT3=
EXTT4=
EXTT5=
EXTT6=
EXTT7=
EXTT8=
EXTT9=
EXTT10=
EXTT11=
EXTT12=
EXTT13=
EXTT14=
EXTT15=
EXTT16=
EXTT17=
EXTT18=
EXTT19=
EXTT20=
EXTT21=
PLAYORDER=
